<?xml version="1.0" encoding="utf-8"?><svg version="1.1" id="Layer_1" xmlns="http://www.w3.org/2000/svg" xmlns:xlink="http://www.w3.org/1999/xlink" x="0px" y="0px" viewBox="0 0 97.97 122.88" style="enable-background:new 0 0 97.97 122.88" xml:space="preserve"><style type="text/css">.st0{fill-rule:evenodd;clip-rule:evenodd;}</style><g><path fill="#FAA06A" class="st0" d="M4.23,0h89.52c2.32,0,4.23,1.9,4.23,4.23v114.42c0,2.33-1.9,4.23-4.23,4.23l-89.52,0 c-2.32,0-4.23-1.9-4.23-4.23V4.23C0,1.9,1.9,0,4.23,0L4.23,0z M64.03,18.1h7.04v5.73h-7.04V18.1L64.03,18.1z M76.45,18.1h7.04v5.73 h-7.04V18.1L76.45,18.1z M9.97,45.11h11.72c1,0,1.83,0.82,1.83,1.83v9.89c0,1-0.82,1.83-1.83,1.83H9.97c-1,0-1.83-0.82-1.83-1.83 v-9.89C8.15,45.93,8.97,45.11,9.97,45.11L9.97,45.11z M77.39,101.3H89.1c1,0,1.83,0.82,1.83,1.83v9.89c0,1-0.82,1.83-1.83,1.83 l-11.71,0c-1,0-1.83-0.82-1.83-1.83v-9.89C75.56,102.12,76.39,101.3,77.39,101.3L77.39,101.3L77.39,101.3z M54.92,101.3h11.71 c1,0,1.82,0.82,1.82,1.83v9.89c0,1-0.82,1.83-1.82,1.83l-11.71,0c-1,0-1.83-0.82-1.83-1.83v-9.89 C53.09,102.12,53.91,101.3,54.92,101.3L54.92,101.3L54.92,101.3z M32.45,101.3h11.72c1,0,1.83,0.82,1.83,1.83v9.89 c0,1-0.82,1.83-1.83,1.83l-11.72,0c-1,0-1.83-0.82-1.83-1.83v-9.89C30.62,102.12,31.44,101.3,32.45,101.3L32.45,101.3L32.45,101.3z M9.97,101.3h11.72c1,0,1.83,0.82,1.83,1.83v9.89c0,1-0.82,1.83-1.83,1.83l-11.72,0c-1,0-1.83-0.82-1.83-1.83v-9.89 C8.15,102.12,8.97,101.3,9.97,101.3L9.97,101.3L9.97,101.3z M77.39,82.57H89.1c1,0,1.83,0.82,1.83,1.83v9.89 c0,1.01-0.82,1.83-1.83,1.83H77.39c-1,0-1.83-0.82-1.83-1.83v-9.89C75.56,83.39,76.39,82.57,77.39,82.57L77.39,82.57z M54.92,82.57 h11.71c1,0,1.82,0.82,1.82,1.83v9.89c0,1.01-0.82,1.83-1.82,1.83H54.92c-1,0-1.83-0.82-1.83-1.83v-9.89 C53.09,83.39,53.91,82.57,54.92,82.57L54.92,82.57z M32.45,82.57h11.72c1,0,1.83,0.82,1.83,1.83v9.89c0,1.01-0.82,1.83-1.83,1.83 H32.45c-1,0-1.83-0.82-1.83-1.83v-9.89C30.62,83.39,31.44,82.57,32.45,82.57L32.45,82.57z M9.97,82.57h11.72 c1,0,1.83,0.82,1.83,1.83v9.89c0,1.01-0.82,1.83-1.83,1.83H9.97c-1,0-1.83-0.82-1.83-1.83v-9.89C8.15,83.39,8.97,82.57,9.97,82.57 L9.97,82.57L9.97,82.57z M77.39,63.84H89.1c1,0,1.83,0.82,1.83,1.83v9.89c0,1-0.82,1.83-1.83,1.83H77.39c-1,0-1.83-0.82-1.83-1.83 v-9.89C75.56,64.66,76.39,63.84,77.39,63.84L77.39,63.84z M54.92,63.84h11.71c1,0,1.82,0.82,1.82,1.83v9.89 c0,1-0.82,1.83-1.82,1.83H54.92c-1,0-1.83-0.82-1.83-1.83v-9.89C53.09,64.66,53.91,63.84,54.92,63.84L54.92,63.84z M32.45,63.84 h11.72c1,0,1.83,0.82,1.83,1.83v9.89c0,1-0.82,1.83-1.83,1.83H32.45c-1,0-1.83-0.82-1.83-1.83v-9.89 C30.62,64.66,31.44,63.84,32.45,63.84L32.45,63.84z M9.97,63.84h11.72c1,0,1.83,0.82,1.83,1.83v9.89c0,1-0.82,1.83-1.83,1.83H9.97 c-1,0-1.83-0.82-1.83-1.83v-9.89C8.15,64.66,8.97,63.84,9.97,63.84L9.97,63.84z M77.39,45.11H89.1c1,0,1.83,0.82,1.83,1.83v9.89 c0,1-0.82,1.83-1.83,1.83H77.39c-1,0-1.83-0.82-1.83-1.83v-9.89C75.56,45.93,76.39,45.11,77.39,45.11L77.39,45.11z M54.92,45.11 h11.71c1,0,1.82,0.82,1.82,1.83v9.89c0,1-0.82,1.83-1.82,1.83H54.92c-1,0-1.83-0.82-1.83-1.83v-9.89 C53.09,45.93,53.91,45.11,54.92,45.11L54.92,45.11z M32.45,45.11h11.72c1,0,1.83,0.82,1.83,1.83v9.89c0,1-0.82,1.83-1.83,1.83 H32.45c-1,0-1.83-0.82-1.83-1.83v-9.89C30.62,45.93,31.44,45.11,32.45,45.11L32.45,45.11z M9.02,8.63H88.1 c0.77,0,1.39,0.63,1.39,1.39v19.12c0,0.77-0.62,1.39-1.39,1.39H9.02c-0.77,0-1.39-0.63-1.39-1.39V10.02 C7.63,9.26,8.26,8.63,9.02,8.63L9.02,8.63z"/></g></svg>